 <svg  version="1.0" xmlns="http://www.w3.org/2000/svg"  width="900.000000pt" height="780.000000pt" viewBox="0 0 900.000000 780.000000"  preserveAspectRatio="xMidYMid meet">  <g transform="translate(0.000000,780.000000) scale(0.100000,-0.100000)" fill="#dd0808" stroke="none"> <path d="M6318 6893 l-3 -358 -900 -5 -900 -5 -32 -23 c-63 -44 -77 -77 -83 -182 l-5 -95 -95 2 c-52 1 -98 2 -102 2 -4 1 -9 108 -10 239 -3 237 -3 237 -25 240 l-23 3 -2 -253 -3 -253 -76 -40 c-42 -22 -94 -52 -115 -66 -190 -128 -271 -178 -354 -220 -103 -51 -151 -62 -420 -99 -47 -6 -89 -15 -95 -21 -5 -5 -17 -9 -27 -9 -18 0 -138 -60 -165 -82 -9 -7 -13 -42 -13 -108 0 -81 3 -99 16 -104 9 -3 289 -6 623 -6 974 1 991 1 991 -10 0 -6 -10 -14 -22 -19 -32 -12 -64 -49 -82 -96 -13 -32 -17 -86 -19 -258 -2 -242 -4 -237 65 -237 43 0 58 19 58 72 0 43 15 58 58 58 55 0 72 -15 72 -63 0 -55 13 -67 71 -67 l48 0 6 44 c4 24 5 133 3 242 -3 179 -5 202 -23 229 -27 41 -66 74 -87 75 -20 0 -32 16 -19 24 5 3 240 6 522 7 283 0 524 3 537 6 21 5 22 10 22 102 l0 97 -62 17 c-35 10 -85 24 -112 32 -26 8 -55 15 -63 15 -8 0 -35 6 -61 14 -44 13 -90 26 -222 62 -179 49 -240 68 -282 90 -16 8 -101 68 -187 133 -86 64 -178 128 -204 140 -26 13 -52 32 -58 43 -7 13 -10 58 -7 115 4 90 5 95 36 126 l32 32 883 1 c487 0 890 -3 900 -8 16 -8 17 -34 17 -323 0 -207 4 -316 10 -320 6 -4 17 -1 26 5 12 11 14 108 12 714 l-3 701 -22 3 -23 3 -2 -358z m-1949 -837 c30 -19 -1 -90 -46 -107 -32 -12 -89 5 -103 31 -10 19 -14 73 -6 81 7 7 142 2 155 -5z m254 -798 c22 -26 23 -115 1 -146 -19 -27 -78 -30 -106 -5 -33 30 -18 166 20 176 29 8 66 -3 85 -25z"/> <path d="M3495 5403 c-45 -23 -65 -44 -88 -88 -18 -36 -20 -56 -18 -193 2 -168 13 -212 66 -264 72 -72 228 -57 291 29 37 50 44 105 34 267 -8 131 -11 152 -33 185 -47 71 -176 104 -252 64z m129 -135 c25 -22 26 -28 28 -154 3 -118 1 -134 -16 -153 -22 -24 -62 -27 -90 -6 -16 12 -21 35 -28 137 -10 135 -3 172 34 188 35 14 45 12 72 -12z"/> <path d="M3866 5413 c-11 -11 5 -556 17 -570 12 -16 89 -17 105 -1 8 8 12 54 12 141 0 112 2 128 16 125 9 -2 22 -19 29 -38 47 -131 71 -189 88 -213 18 -26 23 -28 81 -25 l61 3 0 290 0 290 -55 0 -55 0 -3 -135 c-1 -74 -6 -138 -11 -143 -8 -8 -51 55 -51 76 0 7 -6 23 -13 37 -7 14 -24 54 -37 90 -13 36 -29 68 -34 72 -14 10 -140 10 -150 1z"/> <path d="M4819 5404 c-11 -13 -15 -97 -5 -112 4 -7 29 -12 56 -12 27 0 61 -5 76 -10 l26 -10 -6 -178 c-4 -97 -9 -189 -12 -203 -3 -17 1 -33 11 -43 17 -17 81 -22 103 -8 9 6 14 63 19 211 7 234 7 234 87 231 91 -4 87 -7 84 57 l-3 58 -130 11 c-201 18 -295 21 -306 8z"/> <path d="M5341 5380 c-9 -6 -27 -211 -37 -410 -5 -113 -4 -138 8 -148 15 -12 319 -34 345 -24 7 2 15 24 19 49 9 64 -4 74 -118 82 -107 8 -118 13 -118 46 0 42 21 53 86 44 76 -10 94 4 94 71 0 55 -8 60 -96 60 -59 0 -77 15 -72 57 l3 28 117 -1 118 -2 10 37 c22 78 14 85 -110 96 -47 4 -120 10 -163 14 -43 3 -82 4 -86 1z"/> <path d="M2975 5361 l-70 -6 -3 -38 c-2 -21 2 -93 8 -160 6 -67 13 -173 17 -235 3 -62 11 -116 17 -119 18 -11 198 -2 248 12 54 16 78 35 102 83 15 28 17 58 14 190 -3 173 -15 215 -71 256 -31 23 -126 29 -262 17z m192 -133 c13 -21 21 -241 10 -265 -9 -20 -18 -23 -67 -23 l-57 0 -8 129 c-9 169 -8 171 60 171 32 0 57 -5 62 -12z"/> <path d="M4177 4763 c-62 -19 -119 -75 -141 -138 -12 -38 -16 -88 -16 -227 0 -202 11 -254 64 -312 35 -39 119 -76 171 -76 87 0 176 55 216 132 17 33 19 60 19 253 0 200 -2 219 -21 258 -29 56 -70 92 -129 111 -58 19 -99 19 -163 -1z m137 -184 c25 -30 26 -34 26 -176 0 -130 -2 -149 -21 -179 -17 -29 -26 -34 -58 -34 -69 0 -76 18 -79 204 -3 153 -2 163 18 189 31 39 79 37 114 -4z"/> <path d="M4775 4766 c-5 -2 -22 -7 -38 -10 -40 -9 -107 -74 -128 -124 -16 -37 -20 -74 -22 -241 -2 -195 -2 -196 25 -251 30 -60 59 -87 126 -113 118 -47 248 7 302 125 17 38 20 67 20 241 0 175 -2 203 -19 240 -24 50 -61 91 -102 112 -28 15 -143 29 -164 21z m85 -169 c44 -34 50 -57 50 -192 0 -107 -4 -138 -20 -173 -19 -43 -20 -43 -67 -40 -70 4 -83 35 -83 193 0 66 5 136 10 155 17 58 73 87 110 57z"/> <path d="M3535 4740 c-11 -18 -5 -683 6 -697 15 -18 389 -19 407 -1 7 7 12 39 12 73 0 34 -5 66 -12 73 -8 8 -50 12 -123 12 -96 0 -114 3 -128 18 -15 16 -17 49 -17 259 0 133 -3 248 -6 257 -5 12 -21 16 -69 16 -35 0 -67 -4 -70 -10z"/> <path d="M5181 4726 c-17 -20 -37 -661 -22 -680 17 -20 230 -28 309 -12 70 15 118 52 146 111 22 45 34 377 16 440 -16 59 -63 105 -127 127 -68 23 -306 33 -322 14z m283 -175 c13 -11 16 -40 16 -164 0 -141 -1 -152 -22 -174 -16 -18 -32 -23 -69 -23 -29 0 -51 6 -59 15 -15 18 -14 318 1 348 9 16 19 19 64 15 30 -3 61 -10 69 -17z"/> <path d="M2995 4722 l-40 -7 4 -330 c2 -181 8 -338 13 -347 8 -16 24 -18 131 -18 157 1 246 18 294 56 69 56 78 170 18 247 -22 29 -22 29 -3 84 41 126 2 247 -97 300 -32 18 -242 27 -320 15z m253 -168 c18 -12 22 -25 22 -64 0 -58 -14 -70 -84 -70 -71 0 -76 4 -76 71 0 52 3 61 23 69 35 14 91 11 115 -6z m26 -296 c21 -30 20 -47 -6 -75 -17 -18 -32 -23 -74 -23 -29 0 -56 5 -62 13 -21 26 -24 58 -8 82 14 22 24 25 76 25 50 0 61 -4 74 -22z"/> <path d="M3180 3926 c-98 -22 -166 -80 -203 -174 -35 -88 -14 -176 62 -255 42 -44 72 -62 213 -127 42 -19 98 -70 98 -88 0 -4 -9 -18 -19 -31 -14 -19 -30 -25 -73 -29 -47 -4 -58 -1 -82 20 -15 13 -31 39 -34 57 -11 52 -28 57 -113 37 -84 -21 -99 -30 -98 -60 1 -31 31 -117 53 -148 46 -68 172 -128 269 -128 43 0 130 22 172 44 43 22 87 64 115 110 34 57 35 174 1 231 -47 78 -107 121 -273 195 -46 21 -98 64 -98 82 0 5 12 21 26 35 22 22 32 25 70 20 50 -5 77 -27 87 -70 10 -38 34 -47 87 -35 101 23 115 31 118 66 4 37 -33 124 -67 160 -38 38 -102 74 -160 88 -66 16 -79 16 -151 0z"/> <path d="M3848 3925 c-48 -18 -89 -44 -113 -75 -65 -79 -75 -152 -75 -522 0 -348 -10 -313 92 -322 32 -3 69 -1 83 4 24 9 25 14 25 84 0 96 9 106 95 106 81 0 95 -16 95 -110 0 -38 5 -71 12 -78 19 -19 153 -16 173 4 14 15 16 54 13 363 l-3 346 -28 60 c-35 74 -84 120 -153 140 -63 18 -166 18 -216 0z m151 -231 c47 -18 51 -30 51 -149 0 -120 -10 -135 -88 -135 -36 0 -66 6 -80 16 -20 14 -22 23 -22 115 0 112 8 135 53 154 41 18 39 18 86 -1z"/> <path d="M4330 3905 c-9 -11 -9 -26 0 -67 27 -119 58 -268 85 -403 17 -84 38 -180 60 -280 8 -33 16 -75 19 -94 9 -53 27 -60 154 -61 105 0 115 2 136 23 15 15 26 41 30 73 4 27 13 78 21 114 7 36 20 99 29 140 62 314 76 379 92 441 19 73 18 115 -2 123 -9 3 -47 6 -85 6 -77 0 -109 -19 -109 -64 0 -14 -5 -37 -10 -52 -6 -15 -15 -52 -20 -83 -5 -31 -16 -87 -24 -126 -8 -38 -21 -101 -28 -138 -7 -37 -18 -68 -23 -69 -12 0 -38 81 -60 187 -9 44 -23 107 -30 140 -8 33 -17 80 -21 105 -3 25 -13 57 -20 73 -14 26 -17 27 -98 27 -61 0 -87 -4 -96 -15z"/> <path d="M5075 3903 c-17 -17 -18 -44 -11 -442 3 -233 9 -428 13 -434 9 -15 539 -2 558 13 11 9 15 34 15 91 0 113 3 112 -190 103 l-157 -7 -16 24 c-22 31 -21 72 1 92 15 13 39 17 113 17 130 0 135 4 133 111 -3 107 -6 109 -139 109 -114 0 -125 5 -125 61 0 59 13 63 194 69 l161 5 0 94 c0 94 0 95 -27 102 -15 4 -135 8 -266 8 -217 2 -241 0 -257 -16z"/> <path d="M3095 2938 c-51 -13 -123 -71 -131 -106 -4 -15 -11 -33 -17 -40 -6 -7 -14 -70 -18 -140 -4 -70 -12 -192 -19 -271 -12 -136 -12 -145 6 -158 21 -15 140 -18 149 -3 4 6 9 35 12 65 7 69 19 79 81 70 72 -10 77 -15 74 -82 -1 -32 2 -65 7 -72 11 -18 128 -27 150 -12 12 8 16 60 23 258 9 270 5 329 -23 385 -46 91 -173 137 -294 106z m149 -212 c16 -18 18 -31 12 -95 -8 -96 -22 -112 -85 -104 -81 10 -82 12 -75 106 4 45 11 90 15 99 17 33 102 29 133 -6z"/> <path d="M5413 2930 c-140 -4 -207 -10 -215 -18 -14 -14 -13 -144 2 -377 6 -77 10 -183 10 -236 0 -72 4 -100 15 -109 11 -9 41 -9 137 0 68 7 166 15 218 19 52 3 101 10 109 15 10 7 12 25 7 80 -4 39 -10 74 -15 79 -4 4 -67 3 -140 -4 -145 -12 -161 -9 -161 40 0 49 17 59 112 63 48 3 91 8 95 12 11 11 4 138 -9 154 -9 10 -31 12 -98 6 -74 -5 -89 -4 -103 11 -20 20 -22 58 -3 74 7 6 71 16 141 21 71 6 132 13 137 16 4 3 8 36 8 73 0 64 -11 93 -34 89 -6 -1 -102 -4 -213 -8z"/> <path d="M4840 2908 c-107 -5 -197 -12 -199 -14 -3 -3 -4 -165 -2 -362 2 -317 4 -358 19 -370 19 -15 142 -5 155 12 4 6 5 58 2 116 -4 65 -3 115 4 133 10 27 11 27 106 27 89 0 96 1 106 23 6 14 7 46 2 87 l-8 65 -105 5 -105 5 -3 36 c-2 21 2 40 10 46 7 6 72 14 143 18 72 4 136 12 143 17 7 7 12 35 12 74 0 71 -15 95 -58 92 -15 0 -115 -5 -222 -10z"/> <path d="M3837 2885 c-9 -21 -10 -715 -2 -723 4 -4 104 -7 223 -7 l217 0 0 85 0 85 -132 3 c-73 1 -134 4 -135 5 -1 1 -5 128 -8 282 l-5 280 -76 3 c-62 2 -78 0 -82 -13z"/> <path d="M4367 2894 c-4 -4 -7 -168 -7 -364 0 -296 2 -360 14 -369 9 -7 40 -11 78 -9 l63 3 0 370 0 370 -70 3 c-39 1 -74 0 -78 -4z"/> <path d="M2873 2054 c-10 -25 3 -157 18 -184 53 -97 108 -147 190 -174 29 -9 107 -16 224 -19 139 -4 198 -10 259 -26 140 -37 221 -100 240 -186 4 -18 16 -35 29 -40 20 -9 22 -19 25 -87 2 -52 7 -80 17 -88 19 -16 19 -69 0 -94 -22 -30 -20 -128 3 -149 25 -22 85 -22 104 1 22 25 29 95 12 127 -15 30 -19 111 -5 119 4 3 11 40 13 81 3 42 10 81 15 86 5 5 51 9 104 7 l94 -3 5 -81 c5 -74 15 -104 43 -125 11 -8 11 -16 2 -214 -5 -117 -3 -215 9 -365 14 -179 21 -234 42 -348 5 -26 30 -40 46 -24 7 7 5 36 -6 93 -22 121 -46 414 -45 559 1 190 12 283 37 315 18 23 22 41 22 105 0 92 -3 90 115 90 96 0 95 1 95 -100 0 -48 4 -71 15 -80 19 -16 19 -70 0 -96 -8 -11 -14 -41 -15 -71 0 -41 5 -57 22 -73 27 -25 79 -26 101 -2 25 28 33 97 13 126 -18 29 -21 107 -5 123 7 7 14 46 17 87 4 64 8 78 27 90 12 8 25 28 28 45 8 39 82 115 134 137 104 44 166 55 353 60 187 6 242 16 298 52 54 34 81 65 111 126 26 53 31 75 31 134 0 54 -3 71 -16 76 -9 3 -645 6 -1415 6 -1257 0 -1400 -2 -1406 -16z"/> </g> </svg> 