<?xml version="1.0" standalone="no"?>
<!DOCTYPE svg PUBLIC "-//W3C//DTD SVG 20010904//EN"
 "http://www.w3.org/TR/2001/REC-SVG-20010904/DTD/svg10.dtd">
<svg version="1.0" xmlns="http://www.w3.org/2000/svg"
 width="900.000000pt" height="480.000000pt" viewBox="0 0 900.000000 480.000000"
 preserveAspectRatio="xMidYMid meet">
<metadata>
Created by potrace 1.10, written by Peter Selinger 2001-2011
</metadata>
<g transform="translate(0.000000,480.000000) scale(0.100000,-0.100000)"
fill="#ff0000" stroke="none">
<path d="M4415 4151 c-162 -27 -285 -190 -272 -357 6 -83 27 -197 38 -208 5
-6 9 -17 9 -25 0 -14 68 -160 80 -171 3 -3 19 -25 35 -50 32 -48 207 -230 222
-230 4 0 24 -14 43 -30 19 -16 40 -34 47 -40 7 -5 15 -10 19 -10 4 0 15 -6 23
-14 9 -8 42 -28 75 -46 l59 -31 81 47 c355 206 566 514 566 826 0 80 -4 98
-30 153 -29 61 -116 155 -144 155 -6 0 -24 7 -41 16 -20 10 -57 16 -110 16
-67 0 -89 -4 -136 -26 -66 -32 -136 -95 -155 -142 -8 -19 -17 -34 -20 -34 -17
0 -43 23 -48 42 -11 41 -96 118 -146 133 -14 4 -29 11 -35 15 -16 12 -116 19
-160 11z m473 -411 c2 -44 8 -78 15 -82 7 -4 44 -8 83 -8 l72 0 6 -31 c8 -39
6 -116 -3 -149 -6 -23 -12 -25 -86 -30 l-80 -5 -5 -75 -5 -75 -89 -3 c-65 -2
-92 1 -98 10 -4 7 -8 43 -8 81 l0 67 -68 0 c-98 0 -103 6 -100 115 l3 90 80 5
80 5 3 60 c4 111 -1 106 105 103 l92 -3 3 -75z"/>
<path d="M4870 2868 c-25 -5 -130 -7 -235 -4 -104 3 -217 2 -250 -3 -97 -14
-178 -31 -205 -42 -58 -25 -93 -44 -113 -62 -35 -31 -90 -63 -119 -71 l-28 -6
0 -161 0 -162 52 7 c28 4 60 12 71 18 27 14 111 15 139 1 41 -20 205 -59 313
-75 125 -18 272 -1 370 41 11 5 49 19 85 32 36 12 69 26 75 31 5 4 16 8 25 8
8 1 33 9 55 20 22 11 44 19 48 20 20 1 119 73 182 134 39 37 105 95 148 127
100 78 103 110 9 109 -71 -1 -187 -52 -327 -145 -129 -85 -148 -90 -311 -90
-88 0 -146 4 -155 11 -8 6 -26 14 -41 18 -21 5 -28 12 -28 31 0 31 18 39 120
55 112 18 187 47 216 85 27 36 29 48 12 62 -21 17 -61 21 -108 11z"/>
<path d="M3750 2699 c-14 -4 -45 -12 -70 -16 l-45 -8 -3 -223 c-3 -253 -14
-228 98 -212 41 6 69 15 77 26 16 22 18 395 3 425 -11 20 -21 22 -60 8z m20
-371 c0 -40 -39 -58 -75 -34 -28 18 -31 34 -12 58 30 38 87 23 87 -24z"/>
<path d="M2182 1922 c-10 -7 -12 -99 -10 -428 l3 -419 69 -3 c38 -2 72 1 75 7
3 5 5 199 3 430 l-2 421 -63 0 c-34 0 -68 -4 -75 -8z"/>
<path d="M2665 1921 c-3 -5 -7 -35 -9 -65 l-4 -56 79 0 79 0 0 43 c0 82 -4 87
-76 87 -34 0 -65 -4 -69 -9z"/>
<path d="M3302 1915 c-88 -29 -132 -87 -132 -175 0 -44 -9 -52 -65 -60 -39 -5
-40 -6 -43 -47 -3 -39 -1 -43 20 -44 13 -1 28 -2 33 -4 6 -1 20 -3 32 -3 l23
-2 2 -252 3 -253 70 0 70 0 3 248 2 248 27 10 c15 6 36 8 48 5 33 -8 47 7 43
50 -3 38 -4 39 -50 46 -60 8 -68 13 -68 44 0 52 33 82 100 93 32 6 35 10 38
41 1 19 -2 41 -7 49 -12 19 -97 23 -149 6z"/>
<path d="M4590 1908 c0 -13 -1 -205 -2 -428 l-2 -405 75 0 74 0 3 414 c1 297
-1 418 -9 427 -8 9 -34 14 -75 14 -60 0 -64 -2 -64 -22z"/>
<path d="M5077 1923 c-4 -3 -7 -33 -7 -65 l0 -58 80 0 80 0 0 53 c0 29 -5 58
-12 65 -13 13 -130 17 -141 5z"/>
<path d="M3915 1693 c-80 -18 -153 -75 -196 -155 -33 -60 -34 -67 -34 -168 0
-98 2 -109 29 -158 26 -45 52 -75 112 -121 21 -17 123 -41 174 -41 102 0 194
49 246 131 13 21 24 43 24 49 0 6 -27 10 -63 10 -52 0 -67 -4 -83 -21 -48 -53
-130 -72 -195 -45 -41 17 -60 38 -84 88 -34 74 -37 72 212 78 122 3 225 8 228
12 11 11 -12 149 -32 188 -28 58 -104 124 -163 143 -49 16 -129 21 -175 10z
m140 -124 c45 -23 80 -78 73 -115 -3 -17 -16 -19 -140 -22 -126 -2 -138 -1
-147 17 -20 36 37 113 95 131 47 14 74 11 119 -11z"/>
<path d="M5835 1693 c-26 -7 -65 -32 -94 -60 -32 -31 -51 -29 -51 5 0 41 -12
47 -79 44 l-61 -4 0 -304 0 -304 74 0 c63 0 75 3 80 18 2 9 3 76 1 147 -2 72
1 164 6 205 8 69 11 78 45 108 32 27 45 32 90 32 45 0 57 -4 82 -29 16 -17 32
-44 36 -62 3 -17 6 -119 6 -226 l0 -194 78 3 77 3 3 195 c4 273 -16 353 -96
401 -37 22 -152 35 -197 22z"/>
<path d="M6655 1694 c-70 -18 -140 -67 -193 -139 -26 -35 -44 -112 -44 -189 1
-106 30 -174 101 -238 106 -95 285 -104 399 -20 35 25 94 111 86 124 -3 4 -33
8 -67 8 -51 0 -64 -4 -75 -20 -6 -11 -30 -29 -52 -40 -103 -53 -226 8 -233
116 l-2 39 225 5 225 5 3 29 c6 47 -29 158 -64 204 -62 81 -119 112 -218 117
-39 2 -80 2 -91 -1z m105 -110 c18 -4 48 -22 66 -41 27 -27 34 -42 34 -74 l0
-40 -137 3 -138 3 -3 35 c-2 30 3 42 32 72 43 44 81 55 146 42z"/>
<path d="M2723 1682 c-41 -2 -63 -7 -63 -15 0 -32 -1 -574 0 -585 0 -10 18
-12 73 -10 l72 3 3 290 c2 223 -1 294 -10 305 -10 11 -30 14 -75 12z"/>
<path d="M5070 1375 l0 -306 78 3 77 3 3 280 c1 154 0 290 -3 303 -5 20 -11
22 -80 22 l-75 0 0 -305z"/>
<path d="M2682 888 c-19 -19 -17 -262 3 -278 22 -19 35 -3 35 45 0 69 5 75 64
75 63 0 76 -11 76 -64 0 -50 14 -76 31 -59 11 11 16 279 5 290 -3 3 -12 3 -21
0 -11 -5 -15 -21 -15 -56 0 -58 -14 -71 -77 -71 -54 0 -61 8 -65 69 -3 56 -14
71 -36 49z"/>
<path d="M3177 894 c-4 -4 -7 -67 -7 -139 0 -102 3 -135 14 -144 9 -7 42 -11
88 -9 67 3 73 5 76 26 3 21 0 22 -57 22 l-61 0 0 40 0 40 40 0 c28 0 43 5 47
16 7 20 -15 36 -42 30 -32 -8 -47 8 -43 45 3 34 3 34 61 37 49 3 58 6 55 20
-3 14 -17 18 -84 20 -44 1 -83 0 -87 -4z"/>
<path d="M3624 887 c-2 -7 -3 -74 -2 -148 l3 -134 80 0 c75 0 80 1 83 22 3 20
-1 22 -55 25 l-58 3 -3 109 c-3 102 -11 136 -34 136 -5 0 -11 -6 -14 -13z"/>
<path d="M4063 889 c-20 -21 -18 -263 2 -279 22 -18 33 -3 37 50 l3 45 52 3
c44 3 56 8 79 35 21 26 25 38 21 70 -8 61 -35 81 -114 85 -46 2 -72 0 -80 -9z
m125 -45 c47 -33 13 -98 -50 -92 -30 3 -33 6 -36 42 -2 21 -1 44 2 52 7 19 56
18 84 -2z"/>
<path d="M4872 888 c-18 -18 -16 -248 1 -273 21 -27 37 -9 37 40 0 69 5 75 64
75 63 0 76 -11 76 -64 0 -23 5 -48 10 -56 9 -13 12 -12 25 4 11 15 15 49 15
140 0 126 -7 153 -34 143 -12 -5 -16 -20 -16 -61 0 -61 -6 -66 -75 -66 -52 0
-63 12 -67 74 -3 51 -15 65 -36 44z"/>
<path d="M5372 888 c-18 -18 -17 -262 2 -277 9 -7 42 -11 88 -9 67 3 73 5 76
25 3 20 -1 22 -55 25 l-58 3 -3 38 -3 37 41 0 c27 0 43 5 47 15 8 22 -3 29
-45 30 -36 0 -37 1 -37 40 l0 40 58 3 c49 3 58 6 55 20 -3 14 -17 18 -78 20
-50 2 -79 -1 -88 -10z"/>
<path d="M5914 888 c-9 -13 -32 -61 -59 -123 -7 -16 -23 -51 -34 -76 -12 -25
-21 -53 -21 -62 0 -25 22 -32 36 -11 31 46 47 54 101 54 49 0 57 -3 87 -36 47
-52 75 -28 42 34 -24 44 -76 161 -76 171 0 15 -41 61 -55 61 -7 0 -17 -6 -21
-12z m42 -85 c3 -10 12 -30 20 -46 8 -15 12 -32 9 -37 -8 -13 -82 -13 -90 0
-8 13 33 100 46 100 5 0 12 -8 15 -17z"/>
<path d="M6346 885 c-10 -27 -7 -245 4 -266 9 -16 22 -19 79 -19 50 0 72 4 81
15 19 23 2 33 -60 37 l-55 3 -5 120 c-4 100 -8 120 -21 123 -9 2 -19 -4 -23
-13z"/>
</g>
</svg>
